<?xml version="1.0" standalone="no"?><!DOCTYPE svg PUBLIC "-//W3C//DTD SVG 1.1//EN" "http://www.w3.org/Graphics/SVG/1.1/DTD/svg11.dtd"><svg t="1533878769247" class="icon" style="" viewBox="0 0 1024 1024" version="1.1" xmlns="http://www.w3.org/2000/svg" p-id="790" xmlns:xlink="http://www.w3.org/1999/xlink" width="32" height="32"><defs><style type="text/css"></style></defs><path d="M576.55 435.5a306.08 306.08 0 0 0-77.66 43.71 309.21 309.21 0 0 0-61 62.45 282.79 282.79 0 0 0-39.89 76.9 272.2 272.2 0 0 0-14.12 87.91A267 267 0 0 0 395 784.11 301.05 301.05 0 0 0 426.19 854H403.8q-24.14 0-56.07-1.56-33-1.61-66.05-4.28-33.85-2.71-67.68-6.16-30.62-3.15-61.09-7.47-23.37-3.16-46.5-7.8c-12.76-2.59-20.76-5.16-24.09-7.81q-9.17-6.21-13.71-38.62t3.73-83.15a66.88 66.88 0 0 1 13.71-32 98.6 98.6 0 0 1 25.32-21.45 140.56 140.56 0 0 1 33.26-14.46q18.23-5.49 37.4-10.59c12.7-3.33 25.05-7 36.93-10.93a170.58 170.58 0 0 0 32.78-14.39c11.68-6.78 20.63-13.44 27-20a67.16 67.16 0 0 0 13.71-19.14 47.57 47.57 0 0 0 4.14-19.48c0-6.79-0.27-14.33-0.82-22.67a42.22 42.22 0 0 0-13.3-28.52q-12.41-11.26-25.7-21.52a54 54 0 0 1-12.08-15.28 195.94 195.94 0 0 1-9.5-19.89q-4.31-12.06-8.35-24.23a38.59 38.59 0 0 1-11.6-5.43A60.69 60.69 0 0 1 194.46 366a65 65 0 0 1-3.32-24.23 53.7 53.7 0 0 1 5-19.55A49 49 0 0 1 207 305.85a525.92 525.92 0 0 1 3.33-59.33 363.45 363.45 0 0 1 11.6-53.89 154.23 154.23 0 0 1 25.73-51.58c11.13-14.53 23-26.41 35.77-35.51a171 171 0 0 1 39.85-21.45 188.26 188.26 0 0 1 41.08-10.59 294.54 294.54 0 0 1 39.44-2.71 227 227 0 0 1 47.78 5.09A260 260 0 0 1 496 89.52a203.63 203.63 0 0 1 37 19.55c10.79 7.27 19.21 14.53 25.32 21.86a161.32 161.32 0 0 1 31.56 55A350.28 350.28 0 0 1 604 243.34a477.93 477.93 0 0 1 4.14 63.26 28.71 28.71 0 0 1 9.16 10.18 50.54 50.54 0 0 1 5.37 14.05 57.85 57.85 0 0 1 0.47 21.11 70.1 70.1 0 0 1-7.14 26.95 53 53 0 0 1-12 15.2 42.82 42.82 0 0 1-15.75 8.55q-1.83 5-3.33 10.18l-4.21 10.93q-1.78 6-4.13 11.75m118.78 25a267.18 267.18 0 0 1 184.8 72.6 254.15 254.15 0 0 1 56.07 78.47 230.58 230.58 0 0 1 0 191.28 254.89 254.89 0 0 1-56.07 78.53 259.83 259.83 0 0 1-83.08 52.68 282.18 282.18 0 0 1-204.31 0 260 260 0 0 1-83.09-52.68 255 255 0 0 1-56.06-78.53 230.58 230.58 0 0 1 0-191.28 254.13 254.13 0 0 1 56.06-78.47 264.82 264.82 0 0 1 83.09-53.1 269.29 269.29 0 0 1 102.56-19.48m152.86 198.29a30 30 0 0 0-4.62-28.51 51 51 0 0 0-25.31-18.3 50.19 50.19 0 0 0-31.56-0.82q-15.8 4.7-23.22 24.23c-2.78 8.83-5.43 17.05-7.94 24.58q-3.85 11.87-7.47 23.82-4.11 13.62-9.09 27-6.39 16.78-13.71 33.19c-5.57 13.51-13.44 19.89-23.69 19.14s-18.13-6.38-23.69-16.83a329.77 329.77 0 0 1-17-33.53l-15.34-35.16Q638.7 662 632.2 646.33q-4.65-11.49-10-22.68a26.09 26.09 0 0 0-22-14 62.89 62.89 0 0 0-29.94 4.28 56.41 56.41 0 0 0-24 18.4 25 25 0 0 0-2.92 27.28q14 37.71 29 75c5.57 13.5 10.8 26.81 15.75 39.77s9.44 24.23 13.31 33.6q12.51 29.73 37.8 44.53a110 110 0 0 0 106.3 3.87 76.75 76.75 0 0 0 37-37.47q19.08-42.69 37-85.87 15.19-36.75 28.64-74.19" fill="#1296db" p-id="791"></path></svg>