<?xml version="1.0" standalone="no"?><!DOCTYPE svg PUBLIC "-//W3C//DTD SVG 1.1//EN" "http://www.w3.org/Graphics/SVG/1.1/DTD/svg11.dtd"><svg t="1534264997658" class="icon" style="" viewBox="0 0 1024 1024" version="1.1" xmlns="http://www.w3.org/2000/svg" p-id="3488" xmlns:xlink="http://www.w3.org/1999/xlink" width="32" height="32"><defs><style type="text/css"></style></defs><path d="M793.599155 1023.996928a25.651123 25.651123 0 0 1-19.455941-8.959973L486.400077 679.319562l-287.743137 335.717393A25.599923 25.599923 0 0 1 153.601075 998.397005v-921.597235a25.599923 25.599923 0 0 1 25.599923-25.599924h614.398157a25.599923 25.599923 0 0 1 25.599923 25.599924v921.597235a25.599923 25.599923 0 0 1-25.599923 25.599923z m-307.199078-409.598771a25.599923 25.599923 0 0 1 19.455941 8.959973L767.999232 929.226012V102.450893H204.800922v826.775119l262.143213-305.867882A25.599923 25.599923 0 0 1 486.400077 614.398157z" fill="#c5c8ce" p-id="3489"></path></svg>