<?xml version="1.0" standalone="no"?><!DOCTYPE svg PUBLIC "-//W3C//DTD SVG 1.1//EN" "http://www.w3.org/Graphics/SVG/1.1/DTD/svg11.dtd"><svg t="1535871371340" class="icon" style="" viewBox="0 0 1024 1024" version="1.1" xmlns="http://www.w3.org/2000/svg" p-id="4006" xmlns:xlink="http://www.w3.org/1999/xlink" width="16" height="16"><defs><style type="text/css"></style></defs><path d="M210.432 210.432c-166.56 166.56-166.56 436.576 0 603.168s436.576 166.56 603.168 0c166.592-166.592 166.592-436.576 0-603.168s-436.576-166.56-603.168 0zM789.44 789.44c-152.992 152.992-401.92 152.992-554.912 0s-152.992-401.92 0-554.912c152.992-152.992 401.92-152.992 554.912 0s152.96 401.92 0 554.912z" p-id="4007" fill="#FFFFFF"></path><path d="M343.104 319.008l-24.128 24.128 168.896 168.896-168.096 168.096 24.128 24.128 168.096-168.096 168.096 168.096 24.128-24.128-168.096-168.096 168.896-168.896-24.128-24.128-168.896 168.896z" p-id="4008" fill="#FFFFFF"></path></svg>